<?xml version="1.0" encoding="utf-8"?>
<!-- Generator: Adobe Illustrator 19.0.1, SVG Export Plug-In . SVG Version: 6.00 Build 0)  -->
<svg version="1.1" id="Layer_1" xmlns="http://www.w3.org/2000/svg" xmlns:xlink="http://www.w3.org/1999/xlink" x="0px" y="0px"
	 viewBox="0 0 72 84.2" style="enable-background:new 0 0 72 84.2;" xml:space="preserve">
<style type="text/css">
	.st0{fill-rule:evenodd;clip-rule:evenodd;fill:#FFFFFF;}
	.st1{fill:url(#Neuron_Gradient_1_);}
	.st2{fill-rule:evenodd;clip-rule:evenodd;fill:url(#Bottom_Gradient_1_);}
	.st3{fill-rule:evenodd;clip-rule:evenodd;fill:url(#BG_Neurons_1_);}
	.st4{fill-rule:evenodd;clip-rule:evenodd;}
</style>
<path id="Outline" class="st0" d="M6.2,80.4c-0.1-1.8-0.2-3.6-0.3-5.5c0,0-5.1-1.7-5.3-4.2c-0.1-1.1-0.3-4.3-0.5-7.4
	c0-0.4,0-0.8,0-1.2c0-0.4,0-0.8,0-1.1c0-0.7,0-1.4,0-2.1c0-1.3,0-2.3,0.1-2.7C0.4,54.4,5.2,53,5.2,53c-0.3-16.4,0.1-32.8,1-49.1
	c0,0,1.9-0.8,6.6-1.8C17.4,1.1,24.9,0,35.9,0C47,0,54.5,1.1,59.1,2.1c4.7,1,6.6,1.8,6.6,1.8c0.9,16,1.2,32,1,48c0,0,4.8-1.6,5.2,0.7
	c0.1,0.5,0.1,2,0.1,4c0,1,0,2.1-0.1,3.3c0,0.6,0,1.2-0.1,1.8c0,0.3,0,0.6,0,0.9c0,0.3,0,0.6,0,0.9c-0.2,5-0.5,9.9-0.7,10.7
	c-0.5,2.5-5.1,1.4-5.1,1.4c-0.1,1.6-0.2,3.2-0.2,4.8c0,0-1.9,0.8-6.6,1.8c-4.7,0.9-12.1,2-23.2,2.1c-11.1,0-18.5-1.1-23.2-2.1
	C8.1,81.2,6.2,80.4,6.2,80.4L6.2,80.4z"/>
<radialGradient id="Neuron_Gradient_1_" cx="16.9537" cy="13.1219" r="55.8899" gradientUnits="userSpaceOnUse">
	<stop  offset="5.000000e-02" style="stop-color:#4AF5FF"/>
	<stop  offset="0.1574" style="stop-color:#3AE2FB"/>
	<stop  offset="0.4528" style="stop-color:#10B2EF"/>
	<stop  offset="0.6" style="stop-color:#00A0EB"/>
	<stop  offset="0.6341" style="stop-color:#0098E2"/>
	<stop  offset="0.7943" style="stop-color:#0078BA"/>
	<stop  offset="0.9218" style="stop-color:#0063A2"/>
	<stop  offset="1" style="stop-color:#005C99"/>
</radialGradient>
<path id="Neuron_Gradient" class="st1" d="M63.8,6.6c0-0.7-0.5-1.2-1.1-1.4C62.1,5,59.9,4.4,56,3.6c-6.2-1.1-12.9-1.7-20-1.7
	c-7.1,0-13.8,0.6-20,1.7C12,4.4,9.8,5,9.1,5.2C8.5,5.4,8.1,6,8.1,6.6c-1,23.5-1,47.4,0,71c0,0.7,0.5,1.2,1.1,1.4
	c0.6,0.2,2.9,0.9,6.8,1.6c6.2,1.1,12.9,1.7,20,1.7c0,0,0,0,0,0c7.1,0,13.8-0.6,20-1.7c3.9-0.7,6.1-1.4,6.8-1.6
	c0.6-0.2,1.1-0.7,1.1-1.4C64.9,54,64.9,30.2,63.8,6.6z"/>
<radialGradient id="Bottom_Gradient_1_" cx="35.9458" cy="71.3818" r="30.9457" gradientUnits="userSpaceOnUse">
	<stop  offset="0" style="stop-color:#0055AD"/>
	<stop  offset="0.2141" style="stop-color:#004DA0"/>
	<stop  offset="0.7007" style="stop-color:#003F88"/>
	<stop  offset="1" style="stop-color:#003A7F"/>
</radialGradient>
<path id="Bottom_Gradient" class="st2" d="M7.9,66.2c18.7,0.8,37.3,0.8,56,0c-0.1,4.2-0.3,8.3-0.5,12.5c0,0-1.7,0.7-6,1.6
	C53.1,81,46.3,82,35.9,82c-10.3,0-17.2-1-21.5-1.8c-4.3-0.8-6-1.6-6-1.6C8.2,74.5,8.1,70.4,7.9,66.2L7.9,66.2z"/>
<radialGradient id="BG_Neurons_1_" cx="21.5298" cy="16.6662" r="52.3226" gradientUnits="userSpaceOnUse">
	<stop  offset="0" style="stop-color:#003270"/>
	<stop  offset="0.349" style="stop-color:#003677"/>
	<stop  offset="1" style="stop-color:#003B80"/>
</radialGradient>
<path id="BG_Neurons" class="st3" d="M15.3,44.3c1.9,0.4,4,2.8,3.5,4.2c-1.1,3-7.9,3.3-10.4,3.4c-1.3,0.1,0.2,6.4,2.3,3.3
	c0.9-1.3,4.2-3.3,7.4-3.3c1.6,0,2.6,1,1.8,3.2c-1.2,3.2,3.8,1.7,2.7-0.2c-1-1.7-0.2-4.3,3-3.5c3.2,0.8,4.4,1.8,6.1,2.9
	c1.6,1.1,4.6-3.1,1.9-2.9c-3.6,0.3-8.2-1.6-8.3-3.3c-0.1-1.8,3.7-4.7,6-5.9c2.4-1.2-3.5-2.2-4.1-0.4c-0.9,2.7-3.3,4.3-4.1,4.7
	c-1.6,0.8-3.8,0.3-4-3.4C19.1,39.3,14.1,44,15.3,44.3z M38.5,50.9c1.3-0.2,5.4,0.5,5.3,1.7c-0.1,0.9-1.7,2-3.6,2.3
	c-2,0.4,3.2,3.8,3.2,2.2c0-2.2,1.2-3.3,2.5-3.3c1.3,0,2,0.9,2.1,2.1c0.1,1,3.1-0.3,2.1-0.9c-1.2-0.8-2-1.4-1.5-2.3
	c0.6-1,3.7-1.2,8-0.4c4.3,0.9-0.8-2.9-1.9-2.4c-1.1,0.6-5.2,1.3-6.2,0.6c-1-0.6-0.7-1.9,0-2.9c0.7-1-1.9-1.2-2-0.2
	c-0.1,1,0,2.3-1.3,2.8c-1.3,0.6-3.5-0.6-4.2-1.9C40.1,47.2,37.2,51.1,38.5,50.9L38.5,50.9z M51.5,36.1c1.4-0.1,4-0.2,4.7,1.3
	c0.7,1.5-0.1,4.4-2.8,5.6c-2.8,1.2,1.6,4.8,2.1,2.8c0.6-2.1,1.9-6.5,4.1-6.2c2.1,0.3,3.4,2.6,4.2,4.4c0.8,1.8,1.2-3.6,0-4
	c-1.3-0.4-3-1.7-3-3.5c0-1.7,0.7-2.9,2.5-3.8c2.3-1.1,0.5-4.8-0.1-3.3c-0.6,1.5-1.4,3.3-3.2,3.4c-1.8,0.1-3.9-5.9-2.3-10.3
	c1.5-4-6.1-0.4-4,2c2.1,2.3,3.6,7.6,2.9,9c-0.7,1.4-3,1.4-5.2,0.3C49.2,32.7,50.1,36.2,51.5,36.1z M48.3,3.3c-1.8,1.1-4.2,5-2.3,7
	c1.9,2,8.6,4.7,15.7,2.6c7.1-2.1,0.3,4.8-2.5,3.4c-2.8-1.4-11.3-2.5-13.3,0.4c-1.8,2.6,0.2,5.5,1.1,7.1c0.9,1.5-3.4,3.5-3.1,0.8
	c0.3-2.6,0.4-6.3-3.7-7.2c-3.1-0.6-5.6,0.7-7.3,3.1c-1.7,2.4-5-1.4-2.1-2.3c2.9-1,7.1-2.4,5.8-6.3C35,8.1,28.2,6.5,25.6,6
	c-2-0.4,2.4-4.8,2.7-3.7c0.5,2,7.6,7.1,11.5,6.4c2-0.4,4.7-1.7,4.3-5.5C43.9,2.1,49.7,2.4,48.3,3.3L48.3,3.3z M20.8,9.6
	c0.4,4.4,0.2,13.3-4.2,15.2C12,26.7,10,22.5,9,21c-1-1.6-2.3,4.9-0.1,4.9c2.2,0,4.8,1.2,4.7,3.1c-0.1,1.9-2.6,3.9-5,4.8
	c-2.4,0.9-2.1,7.7-0.1,4.6c2-3.1,4.9-7.1,8-6.5c3.2,0.6,5.1,3.8,5.3,8c0.3,4.3,4.9,0.5,3-1.3c-1.9-1.8-4.7-7.1-3.4-8.8
	c1.3-1.7,5.5-1.1,9.2-0.1c3.8,1.1,1.8-6.4-0.3-4.5c-2,1.9-6.1,2.5-8.4,0.4c-2.3-2.1,1-9.7,2.7-11.5C26.7,11.9,20.3,5.2,20.8,9.6
	L20.8,9.6z"/>
<path id="Blackness" class="st4" d="M70.7,52.8c-0.2-0.7-3,0-5.2,0.6c0.2-16.2,0-32.4-0.9-48.7c0,0-1.6-0.7-6-1.6
	C54.2,2.3,47,1.3,35.9,1.2c-11.1,0-18.3,1-22.7,1.9c-4.4,0.9-6,1.6-6,1.6C6.4,21.1,6.2,37.5,6.4,53.9c-2.6,0.6-4.9,1.9-5.2,2.5v0
	C1,56.9,1.6,70.3,1.8,70.9c0.2,0.8,1.5,1.6,3,2.3c0.7,0.3,1.5,0.6,2.3,0.9c0.1,1.8,0.2,3.6,0.3,5.5c0,0,1.6,0.7,6,1.6
	c4.4,0.8,11.6,1.8,22.7,1.9c11.1,0,18.3-1,22.7-1.9c4.4-0.9,6-1.6,6-1.6c0.1-1.8,0.2-3.6,0.3-5.4c2.4,0.5,4.7,0.8,5.1,0
	c0.1-0.4,0.5-5.5,0.6-10.6C70.8,58.4,70.8,53.3,70.7,52.8z M54.4,54.2c-0.3-0.4-4.5,0.3-6.9,1.1c-2.4,0.7-3.4,1.7-3.6,1.4
	c-0.3-0.4,0.1-1.3-0.2-1.8c-0.2-0.4-3.7-0.1-5.8,0.4c-0.2-4.2,3-7,7.5-7.5c4.8-0.6,8.2,1,11.7,6.6c-0.1,0-0.2,0.1-0.3,0.1
	c-1.3,0.5-2,1.4-2.1,1.1C54.4,55.4,54.7,54.6,54.4,54.2z M13.4,53.7c-0.3-0.3-2.4-0.4-4.6-0.2c0-1.6,0-3.1-0.1-4.7
	c4.1-3,10.8-6.5,19.4-6.1c8.7,0.4,6.4,7.8,1.8,12.3c-0.8,0.1-1.7,0.3-2.4,0.4c-2,0.4-3.5,1.6-3.7,1.2c-0.3-0.5,0.1-1.3-0.4-1.8
	c-0.4-0.5-3.4-0.3-5.8,0.2c-2.3,0.5-3.7,1.4-4,1.1C13.5,55.6,13.9,54.1,13.4,53.7z M62.8,20.2c0.3,10,0.4,20,0.3,30
	c-6.8-1.6-11.8-8.1-11.6-15.3C51.7,28.1,53.4,24.1,62.8,20.2z M55.7,5.1c4.2,0.8,6.5,1.5,6.6,1.6c-0.1,6.1-3.7,10.6-8.3,13.5
	c-4.8,3-10.9,4.1-15.1,2.9C31,20.7,27.2,12.7,26.2,3.8c2.9-0.2,6.1-0.4,9.8-0.4C44.7,3.4,51.3,4.3,55.7,5.1z M15.6,5.2
	C25.9,14.7,32,23.5,29.9,31.6c-2,7.8-14.4,10.3-21.1,8.6C8.8,29,9.1,17.8,9.6,6.7C9.6,6.7,11.6,6,15.6,5.2z M55.7,79.1
	c-4.4,0.8-11,1.7-19.7,1.7c-8.8,0-15.3-0.9-19.7-1.7c-4.4-0.8-6.6-1.6-6.6-1.6c-0.1-2.7-0.2-5.4-0.3-8.1c1.4-0.4,2.3-1.4,2.5-0.9
	c0.2,0.5,0,1.2,0.3,1.7c0.4,0.4,2.5,1.7,5.9,2.5c3.4,0.8,5.6,0.8,5.9,0.4c0.4-0.4,0-1.5,0.2-2c0.2-0.4,1,0.8,3.3,1.3
	c2.3,0.5,5.4,0.7,5.8,0.2c0.4-0.4,0.1-1.1,0.3-1.5c0.1-0.4,1.5,0.7,3.9,1.3c2.5,0.7,5.7,0.7,6,0.3c0.4-0.4,0.1-1.2,0.3-1.5
	c0.2-0.4,1.5,0.8,3.9,1.5c2.5,0.7,5.8,1.2,6.2,0.8c0.4-0.4,0.2-1,0.3-1.3c0.1-0.4,0.7,0.2,2,0.7c1.4,0.5,3,0.9,3.3,0.5
	c0.3-0.4,0.1-0.7,0.3-1.2c0.1-0.4,0.8,0.5,2.8,1.2c-0.1,1.3-0.1,2.7-0.2,4C62.3,77.5,60.1,78.3,55.7,79.1z"/>
<path id="Eyeball" class="st0" d="M44.1,35.1c2.2,2.6,2.1,6.3-0.2,8.1c-2.3,1.9-5.9,1.3-8-1.4c-2.2-2.6-2-6.3,0.2-8.1
	C38.3,31.9,41.9,32.5,44.1,35.1L44.1,35.1z M37.2,37.8c0.8-1,2.3-1,3.5-0.1c1.1,0.9,1.4,2.4,0.7,3.4c-0.8,1-2.3,1-3.5,0.1
	C36.7,40.3,36.4,38.7,37.2,37.8L37.2,37.8z"/>
<path id="Psyonix" class="st0" d="M3.3,57.7c-0.3,0.4,0.1,12,0.4,12.4c0.2,0.4,2.9,1.9,3.2,1.6c0.3-0.3-0.2-4,0.1-4.2
	c0.3-0.2,1,0,2.5-0.6c1.6-0.6,2.3-1.1,2.4-1.5c0.1-0.3,0.2-9.5-0.1-9.9c-0.3-0.4-2.9-0.2-5,0.3C5,56.4,3.6,57.4,3.3,57.7z M6.6,58.8
	c-0.2,0.3,0,5.9,0.3,6.2c0.3,0.3,1.5-0.2,1.7-0.5c0.1-0.3,0.1-6.3-0.1-6.5C8.2,57.9,6.8,58.5,6.6,58.8L6.6,58.8z M13.8,58.7
	c-0.3,0.4-0.4,5.3-0.1,5.6c0.2,0.3,0.5,0.6,2.3,1.6c1.8,1,2.7,1,2.8,1.2c0.2,0.3,0.2,1.3,0,1.4c-0.2,0.2-1.3-0.2-2.6-0.9
	C14.9,67,14,66,13.7,66.2c-0.3,0.2-0.2,1.9,0,2.2c0.1,0.2,0.7,1.1,3.1,2c2.4,0.9,4.7,1,4.9,0.8c0.3-0.2,0.5-5.3,0.3-5.5
	c-0.2-0.2-1.8-0.4-3-1.1c-1.2-0.7-1.8-1.1-1.9-1.3c-0.1-0.3-0.1-2.6,0.1-3c0.2-0.3,1.7-0.7,1.8-0.5c0.1,0.2-0.1,2.9,0.1,3.1
	c0.2,0.2,0.6,0.6,1.2,0.9c0.6,0.2,1.5,0.6,1.8,0.5c0.3-0.1,0.3-7.1,0-7.3c-0.3-0.3-3-0.2-4.8,0.2C15.4,57.6,14.1,58.3,13.8,58.7
	L13.8,58.7z M23.9,59.1c-0.2,0.3-0.1,5,0.1,5.3c0.2,0.3,1.1,1,2.3,1.6c1.2,0.6,2.6,0.8,2.8,1c0.2,0.2,0.2,1.3,0,1.4
	c-0.2,0.1-1.5-0.2-2.6-0.6c-1-0.5-2-1.2-2.2-1.1c-0.2,0.1-0.1,1.8,0,2.1c0.1,0.3,1.4,1.1,3.1,1.7c1.8,0.6,4.1,0.6,4.3,0.3
	c0.2-0.2,0.3-13.4,0.1-13.7c-0.2-0.3-2.7,0-2.9,0.3c-0.2,0.3,0.1,6.8,0,7.1c-0.2,0.3-1.6-0.3-1.7-0.5c-0.1-0.3,0-6-0.2-6.2
	C26.8,57.7,24.1,58.8,23.9,59.1L23.9,59.1z M33.8,58.9c-0.2,0.4-0.4,9.4-0.2,9.8c0.2,0.3,1.9,1.3,3.7,1.7c1.8,0.5,4,0.9,4.4,0.5
	c0.5-0.5,0.4-13.5,0-13.8c-0.4-0.2-2.6-0.1-4.4,0.3C35.5,57.9,34.1,58.5,33.8,58.9z M36.9,59.9c-0.2,0.2-0.3,7.6-0.1,7.9
	c0.2,0.3,1.5,0.7,1.7,0.6c0.2-0.2,0.4-8.7,0.1-8.9C38.4,59.3,37.1,59.7,36.9,59.9L36.9,59.9z M43.9,59.3c-0.2,0.7-0.2,8.2-0.1,8.9
	c0.1,0.4,0.5,1.1,1.4,1.5c0.9,0.5,1.6,0.6,1.8,0.6c0.2-0.1,0-8.2,0.2-8.5c0.1-0.2,1.7,1.1,1.8,1.4c0.2,0.4-0.1,7-0.1,7.4
	c0.1,0.2,0.4,0.5,1.5,0.7c1,0.2,1.6,0.3,1.7,0c0.2-0.4,0.6-14.2,0.6-14.4c-0.1-0.3-3.1,0.3-3.4,0.7c-0.2,0.4,0.1,2-0.2,2.1
	c-0.2,0.1-2.1-1.6-2.3-1.6C46.6,58,44.2,58.6,43.9,59.3L43.9,59.3z M54.7,57.8c-0.2,0.5-0.5,11.1-0.3,11.9c0.1,0.5,0.6,0.9,1.5,1.2
	c0.8,0.3,1.7,0.5,1.8,0.3c0.2-0.3,0.6-14.1,0.4-14.6c-0.1-0.3-1.3,0-2,0.3C55.5,57,54.9,57.4,54.7,57.8z M60,57.6
	c-0.2,0.3-0.4,6.7-0.2,7.2c0.1,0.4,1.4,1.1,1.4,1.5c0,0.4-1.3,0.8-1.5,1.1c-0.2,0.3-0.2,1.9,0,2.3c0.2,0.3,2.3,1.4,3.1,1.3
	c0.3-0.1,0.1-1.7,0.3-2.1c0.2-0.4,0.7-0.8,1-0.8c0.3,0,0.7,0.6,0.8,0.8c0.1,0.3-0.1,2.2,0.1,2.6c0.2,0.4,2.5,0.9,2.8,0.6
	c0.2-0.2,0.4-3.8,0.2-4.2c-0.1-0.4-1.5-0.8-1.4-1.3c0-0.4,1.5-1.1,1.7-1.5c0.2-0.4,0.6-9.8,0.4-10c-0.2-0.2-2.9,0.5-3.1,0.8
	c-0.3,0.4-0.2,7.5-0.4,8c-0.1,0.4-0.7,0.9-1,0.9c-0.3,0-0.8-0.6-0.9-0.9c-0.1-0.3,0.2-7.1,0-7.4C63,56.1,60.3,57.3,60,57.6L60,57.6z
	"/>
</svg>
